<svg width="116" height="70" viewBox="0 0 116 70" fill="none" xmlns="http://www.w3.org/2000/svg">
<path d="M76.7409 10.8943C90.0039 9.94001 102.688 -1.70557 110.731 8.87306C113.304 12.258 114.777 18.9791 114.777 18.9791C114.777 18.9791 116.269 28.2885 114.777 33.9362C112.397 42.9471 106.823 46.3912 99.8055 52.5314C91.9759 59.3819 86.5514 62.3993 76.7409 65.8714C58.8668 72.1974 46.6867 70.0182 28.1839 65.8714C18.0402 63.598 8.6571 65.753 3.09618 56.978C-1.72195 49.3752 -0.279651 42.2787 3.09618 33.9362C7.12435 23.9815 14.3571 20.9945 23.7329 15.7452C41.8669 5.59234 56.007 12.3861 76.7409 10.8943Z" fill="#2E7D32"/>
<path d="M76.7409 7.1583C90.0039 6.20403 102.688 -5.44155 110.731 5.13708C113.304 8.52202 114.777 15.2432 114.777 15.2432C114.777 15.2432 116.269 24.5525 114.777 30.2002C112.397 39.2111 106.823 42.6552 99.8055 48.7954C91.9759 55.646 86.5514 58.6633 76.7409 62.1354C58.8668 68.4614 46.6867 66.2822 28.184 62.1354C18.0402 59.8621 8.6571 62.017 3.09618 53.2421C-1.72195 45.6393 -0.279651 38.5427 3.09618 30.2002C7.12435 20.2456 14.3571 17.2586 23.7329 12.0092C41.8669 1.85637 56.007 8.65009 76.7409 7.1583Z" fill="#81C784"/>
<path d="M32.8763 47.6115C32.8763 49.7779 31.12 51.5342 28.9535 51.5342C26.7871 51.5342 25.0308 49.7779 25.0308 47.6115C25.0308 45.445 26.7871 43.6887 28.9535 43.6887C31.12 43.6887 32.8763 45.445 32.8763 47.6115Z" fill="black"/>
<path d="M28.0196 18.2844H29.8875V49.6662H28.0196V18.2844Z" fill="#D9D9D9"/>
<path d="M44.0841 25.7563L30.0743 18.658V31.7337L44.0841 25.7563Z" fill="#F44336"/>
</svg>
