<svg width="128" height="105" viewBox="0 0 128 105" fill="none" xmlns="http://www.w3.org/2000/svg">
<path d="M13.2463 57.5267C13.2463 57.5267 34.0134 55.4537 46.4781 51.0395C66.424 43.9761 70.8053 23.4565 91.8679 21.4421C100.898 20.5784 107.183 19.2176 114.968 23.8747C121.142 27.568 123.959 31.4198 126.721 38.0653C133.242 53.7583 110.915 78.6098 110.915 78.6098C110.915 78.6098 100.912 91.4271 91.8679 95.6385C84.2699 99.1765 79.0997 98.5739 70.7941 99.6929C51.0309 102.356 36.7003 110.171 19.7306 99.6929C10.3802 93.9195 2.60162 89.4977 1.08832 78.6098C0.152046 71.8735 -0.207658 66.2498 4.73571 61.5811C7.41256 59.053 13.2463 57.5267 13.2463 57.5267Z" fill="#2E7D32"/>
<path d="M13.2463 53.7907C13.2463 53.7907 34.0134 51.7178 46.4781 47.3036C66.424 40.2401 70.8053 19.7206 91.8679 17.7061C100.898 16.8425 107.183 15.4817 114.968 20.1388C121.142 23.8321 123.959 27.6839 126.721 34.3294C133.242 50.0223 110.915 74.8739 110.915 74.8739C110.915 74.8739 100.912 87.6912 91.8679 91.9025C84.2699 95.4405 79.0997 94.838 70.7941 95.957C51.0309 98.6197 36.7003 106.435 19.7306 95.957C10.3802 90.1836 2.60162 85.7618 1.08832 74.8739C0.152046 68.1376 -0.207658 62.5138 4.73571 57.8452C7.41256 55.3171 13.2463 53.7907 13.2463 53.7907Z" fill="#81C784"/>
<path d="M111.476 29.3472C111.476 31.5137 109.72 33.27 107.554 33.27C105.387 33.27 103.631 31.5137 103.631 29.3472C103.631 27.1808 105.387 25.4245 107.554 25.4245C109.72 25.4245 111.476 27.1808 111.476 29.3472Z" fill="black"/>
<path d="M106.62 0.0201416H108.488V31.402H106.62V0.0201416Z" fill="#D9D9D9"/>
<path d="M122.684 7.49201L108.674 0.393735V13.4695L122.684 7.49201Z" fill="#F44336"/>
</svg>
