<svg width="249" height="117" viewBox="0 0 249 117" fill="none" xmlns="http://www.w3.org/2000/svg">
<path d="M227.74 51.4088C221.256 44.1311 192.689 60.8248 173.878 51.4088C161.573 45.2495 157.768 36.7394 146.045 29.5319C137.287 24.147 133.765 20.3771 124.065 16.973C100.475 8.69471 61.2925 4.41405 61.2925 4.41405C61.2925 4.41405 38.728 6.49087 26.4639 13.3268C14.4443 20.0266 3.31989 24.0757 0.949984 37.6345C-0.876539 48.0844 2.29277 55.3863 9.04964 63.5626C16.1702 72.179 34.5636 76.5267 34.5636 76.5267L98.5509 83.819C123.54 86.6668 127.211 103.963 148.364 109.747C174.756 116.964 192.835 119.431 218.426 109.747C229.288 105.637 238.983 105.468 244.345 95.1625C248.872 86.4613 250.829 77.3224 244.345 70.0446L227.74 51.4088Z" fill="#2E7D32"/>
<path d="M227.74 47.6729C221.256 40.3951 192.689 57.0889 173.878 47.6729C161.573 41.5135 157.768 33.0034 146.045 25.796C137.287 20.4111 133.765 16.6412 124.065 13.237C100.475 4.95876 61.2925 0.678101 61.2925 0.678101C61.2925 0.678101 38.728 2.75492 26.4639 9.5909C14.4443 16.2906 3.31989 20.3398 0.949984 33.8985C-0.876539 44.3485 2.29279 51.6504 9.04964 59.8267C16.1702 68.443 34.5636 72.7907 34.5636 72.7907L98.5509 80.083C123.539 82.9308 127.211 100.227 148.364 106.011C174.756 113.228 192.835 115.695 218.426 106.011C229.288 101.901 238.983 101.732 244.345 91.4266C248.872 82.7254 250.829 73.5865 244.345 66.3087L227.74 47.6729Z" fill="#81C784"/>
<path d="M75.1589 43.8281C75.1589 45.9945 73.4026 47.7508 71.2361 47.7508C69.0697 47.7508 67.3134 45.9945 67.3134 43.8281C67.3134 41.6616 69.0697 39.9053 71.2361 39.9053C73.4026 39.9053 75.1589 41.6616 75.1589 43.8281Z" fill="black"/>
<path d="M70.3021 14.501H72.1701V45.8828H70.3021V14.501Z" fill="#D9D9D9"/>
<path d="M86.3667 21.9729L72.3569 14.8746V27.9503L86.3667 21.9729Z" fill="#F44336"/>
</svg>
