<svg width="111" height="127" viewBox="0 0 111 127" fill="none" xmlns="http://www.w3.org/2000/svg">
<path d="M28.6962 8.97175C40.0514 4.17218 47.1257 4.114 59.453 4.114C68.3035 4.114 72.9997 5.92504 80.9019 13.8295C88.8041 21.734 88.7829 20.0935 96.6851 27.9979C104.587 35.9024 94.1649 53.9008 95.471 66.8599C96.8346 80.3907 111.746 82.0647 110.445 95.6016C109.442 106.036 107.83 113.415 99.9226 120.295C89.9387 128.982 79.5036 126.023 66.3329 124.748C50.6453 123.23 28.6962 110.175 28.6962 110.175C28.6962 110.175 9.02352 94.8019 4.00973 80.6235C-0.786321 67.0609 -0.0346465 57.5912 4.00973 43.7856C8.69574 27.7898 13.3466 15.4596 28.6962 8.97175Z" fill="#2E7D32"/>
<path d="M28.6962 5.23586C40.0515 0.436296 47.1257 0.378113 59.4531 0.378113C68.3035 0.378113 72.9998 2.18916 80.9019 10.0936C88.8041 17.9981 88.7829 16.3576 96.6851 24.262C104.587 32.1665 94.1649 50.1649 95.471 63.124C96.8347 76.6548 111.746 78.3288 110.445 91.8657C109.442 102.3 107.83 109.679 99.9226 116.559C89.9387 125.246 79.5037 122.287 66.3329 121.012C50.6453 119.494 28.6962 106.439 28.6962 106.439C28.6962 106.439 9.02355 91.066 4.00975 76.8876C-0.786296 63.325 -0.034621 53.8553 4.00975 40.0497C8.69577 24.0539 13.3466 11.7237 28.6962 5.23586Z" fill="#81C784"/>
<path d="M47.3877 34.1884C47.3877 36.3548 45.6314 38.1111 43.4649 38.1111C41.2985 38.1111 39.5422 36.3548 39.5422 34.1884C39.5422 32.0219 41.2985 30.2656 43.4649 30.2656C45.6314 30.2656 47.3877 32.0219 47.3877 34.1884Z" fill="black"/>
<path d="M42.531 4.86128H44.3989V36.2431H42.531V4.86128Z" fill="#D9D9D9"/>
<path d="M58.5955 12.3331L44.5857 5.23487V18.3106L58.5955 12.3331Z" fill="#F44336"/>
</svg>
