<svg width="248" height="117" viewBox="0 0 248 117" fill="none" xmlns="http://www.w3.org/2000/svg">
<path d="M21.3572 51.339C27.8221 44.0613 56.3032 60.7551 75.0577 51.339C87.3257 45.1797 88.8077 34.2389 100.495 27.0314C109.227 21.6465 115.049 20.3073 124.721 16.9032C148.24 8.62493 187.304 4.34427 187.304 4.34427C187.304 4.34427 209.8 6.4211 222.028 13.2571C234.011 19.9568 245.102 24.006 247.465 37.5647C249.286 48.0146 246.126 55.3165 239.389 63.4928C232.29 72.1092 213.952 76.4569 213.952 76.4569L150.158 83.7492C125.244 86.597 121.584 103.893 100.495 109.677C74.1817 116.894 56.1578 119.361 30.6438 109.677C19.8143 105.567 10.1484 105.398 4.80293 95.0928C0.289539 86.3916 -1.66192 77.2526 4.80293 69.9749L21.3572 51.339Z" fill="#2E7D32"/>
<path d="M21.3572 47.603C27.8221 40.3253 56.3032 57.019 75.0577 47.603C87.3257 41.4437 88.8077 30.5029 100.495 23.2954C109.227 17.9105 115.049 16.5713 124.721 13.1672C148.24 4.88893 187.304 0.608276 187.304 0.608276C187.304 0.608276 209.8 2.6851 222.028 9.52107C234.011 16.2208 245.102 20.27 247.465 33.8287C249.286 44.2786 246.126 51.5805 239.389 59.7568C232.29 68.3732 213.952 72.7209 213.952 72.7209L150.158 80.0132C125.244 82.861 121.584 100.157 100.495 105.941C74.1817 113.158 56.1578 115.625 30.6438 105.941C19.8143 101.831 10.1484 101.662 4.80292 91.3568C0.289528 82.6556 -1.66193 73.5166 4.80292 66.2389L21.3572 47.603Z" fill="#81C784"/>
<path d="M191.56 46.3735C191.56 48.5399 189.804 50.2962 187.637 50.2962C185.471 50.2962 183.715 48.5399 183.715 46.3735C183.715 44.207 185.471 42.4507 187.637 42.4507C189.804 42.4507 191.56 44.207 191.56 46.3735Z" fill="black"/>
<path d="M186.703 17.0464H188.571V48.4282H186.703V17.0464Z" fill="#D9D9D9"/>
<path d="M202.768 24.5183L188.758 17.42V30.4958L202.768 24.5183Z" fill="#F44336"/>
</svg>
