<svg width="281" height="72" viewBox="0 0 281 72" fill="none" xmlns="http://www.w3.org/2000/svg">
<path d="M70.4857 22.6837L123.786 7.66101C144.601 1.79429 172.425 26.4359 201.149 16.7005C209.206 13.9696 212.405 8.98173 220.753 7.28159C231.453 5.10235 248.569 10.5317 248.569 10.5317C248.569 10.5317 274.946 16.7356 278.881 30.1199C281.211 38.0468 281.047 44.2224 276.432 51.0842C272.21 57.361 266.851 58.3662 259.82 61.2864C240.831 69.1735 227.736 57.8634 207.215 59.043C182.781 60.4476 169.919 67.6139 145.572 70.0551C124.09 72.2091 114.143 67.7581 92.5779 66.4497C58.1418 64.3603 14.9831 85.7032 3.88545 53.4997C1.49898 46.5745 -0.35405 42.1081 1.20424 34.9716C3.18642 25.8939 8.40911 21.6101 16.1579 16.3357C33.6964 4.39784 49.6706 28.5504 70.4857 22.6837Z" fill="#2E7D32"/>
<path d="M70.4857 18.9477L123.786 3.92506C144.601 -1.94166 172.425 22.7 201.149 12.9645C209.206 10.2336 212.405 5.24578 220.753 3.54564C231.453 1.3664 248.569 6.79578 248.569 6.79578C248.569 6.79578 274.946 12.9996 278.881 26.3839C281.211 34.3109 281.047 40.4864 276.432 47.3483C272.21 53.625 266.851 54.6303 259.82 57.5505C240.831 65.4376 227.736 54.1275 207.215 55.307C182.781 56.7116 169.919 63.8779 145.572 66.3191C124.09 68.4731 114.143 64.0222 92.5779 62.7137C58.1418 60.6243 14.9831 81.9672 3.88545 49.7637C1.49898 42.8386 -0.35405 38.3722 1.20424 31.2357C3.18642 22.1579 8.40911 17.8741 16.1579 12.5998C33.6964 0.66189 49.6706 24.8144 70.4857 18.9477Z" fill="#81C784"/>
<path d="M66.3704 29.9556C66.3704 32.1221 64.6142 33.8783 62.4477 33.8783C60.2812 33.8783 58.525 32.1221 58.525 29.9556C58.525 27.7892 60.2812 26.0329 62.4477 26.0329C64.6142 26.0329 66.3704 27.7892 66.3704 29.9556Z" fill="black"/>
<path d="M61.5137 0.62854H63.3817V32.0104H61.5137V0.62854Z" fill="#D9D9D9"/>
<path d="M77.5782 8.10041L63.5685 1.00213V14.0779L77.5782 8.10041Z" fill="#F44336"/>
</svg>
