<svg width="113" height="157" viewBox="0 0 113 157" fill="none" xmlns="http://www.w3.org/2000/svg">
<path d="M94.0222 40.5546C94.0222 40.5546 81.0457 11.9166 64.2265 6.42345C47.6715 1.01656 28.9877 8.40058 20.6334 15.8256C12.2791 23.2506 26.4446 51.4756 18.0903 58.9006C9.73604 66.3256 19.5701 83.2257 17.5025 96.0854C15.3438 109.512 0.359655 110.305 0.860925 123.895C1.24732 134.37 2.42147 141.832 9.9094 149.165C19.364 158.425 29.9553 156.087 43.1783 155.59C58.9281 154.999 81.6085 143.26 81.6085 143.26C81.6085 143.26 102.153 129.074 107.994 115.215C113.581 101.959 113.388 92.4614 110.165 78.4415C106.43 62.1973 94.0222 40.5546 94.0222 40.5546Z" fill="#2E7D32"/>
<path d="M94.0222 36.8187C94.0222 36.8187 81.0457 8.18063 64.2265 2.6875C47.6715 -2.71939 28.9877 4.66463 20.6334 12.0896C12.2791 19.5146 26.4446 47.7396 18.0903 55.1646C9.73604 62.5896 19.5701 79.4897 17.5025 92.3494C15.3438 105.776 0.359655 106.569 0.860925 120.159C1.24732 130.634 2.42147 138.096 9.9094 145.429C19.364 154.69 29.9553 152.351 43.1783 151.854C58.9281 151.263 81.6085 139.525 81.6085 139.525C81.6085 139.525 102.153 125.338 107.994 111.479C113.581 98.2231 113.388 88.7255 110.165 74.7055C106.43 58.4613 94.0222 36.8187 94.0222 36.8187Z" fill="#81C784"/>
<path d="M92.2981 98.5733C92.2981 100.74 90.5418 102.496 88.3754 102.496C86.2089 102.496 84.4526 100.74 84.4526 98.5733C84.4526 96.4068 86.2089 94.6505 88.3754 94.6505C90.5418 94.6505 92.2981 96.4068 92.2981 98.5733Z" fill="black"/>
<path d="M87.4414 69.2462H89.3093V100.628H87.4414V69.2462Z" fill="#D9D9D9"/>
<path d="M103.506 76.718L89.4961 69.6198V82.6955L103.506 76.718Z" fill="#EC5858"/>
</svg>
