<svg width="150" height="92" viewBox="0 0 150 92" fill="none" xmlns="http://www.w3.org/2000/svg">
<path d="M14.9108 50.323C29.2214 55.8777 39.2102 52.6133 53.7949 57.4903C77.1334 65.2943 82.2599 87.9652 106.905 90.1909C117.471 91.1451 124.825 92.6485 133.934 87.5032C141.159 83.4227 144.455 79.167 147.686 71.8248C155.317 54.4865 129.192 27.0295 129.192 27.0295C129.192 27.0295 117.304 12.8622 106.905 8.21548C97.9692 4.22274 82.2468 3.73595 82.2468 3.73595H22.498C-0.835405 3.73595 2.4556 15.0001 0.684899 27.0295C-0.41062 34.472 -0.831505 40.6854 4.95267 45.8435C8.08482 48.6367 10.9267 48.7766 14.9108 50.323Z" fill="#2E7D32"/>
<path d="M14.9108 46.5871C29.2214 52.1418 39.2102 48.8774 53.7949 53.7543C77.1334 61.5584 82.2599 84.2292 106.905 86.4549C117.471 87.4091 124.825 88.9126 133.934 83.7672C141.159 79.6867 144.455 75.431 147.686 68.0889C155.317 50.7506 129.192 23.2936 129.192 23.2936C129.192 23.2936 117.304 9.12621 106.905 4.47953C97.9692 0.486794 82.2468 0 82.2468 0H22.498C-0.835405 0 2.4556 11.2641 0.684899 23.2936C-0.41062 30.7361 -0.831505 36.9495 4.95267 42.1076C8.08482 44.9007 10.9267 45.0407 14.9108 46.5871Z" fill="#81C784"/>
<path d="M115.086 56.2259C115.086 58.3923 113.329 60.1486 111.163 60.1486C108.996 60.1486 107.24 58.3923 107.24 56.2259C107.24 54.0594 108.996 52.3032 111.163 52.3032C113.329 52.3032 115.086 54.0594 115.086 56.2259Z" fill="black"/>
<path d="M110.229 26.8988H112.097V58.2806H110.229V26.8988Z" fill="#D9D9D9"/>
<path d="M126.293 34.3707L112.284 27.2724V40.3482L126.293 34.3707Z" fill="#F44336"/>
</svg>
